<svg xmlns="http://www.w3.org/2000/svg" width="200" height="200" viewBox="0 0 36 36"><g transform="translate(807.5 -1113.362)"><rect width="36" height="36" x="-807.5" y="1113.362" fill="none" rx="6" ry="6"/><g transform="translate(-805.5 96)"><path style="isolation:auto;mix-blend-mode:normal" d="M4.0000006 1022.3622l24.9999654 0c0 0-2.999983 2.446-2.999983 3l0 6c0 .554-.446008 1-1.000017 1l-20.9999653 0c-.5540097 0-1.0000175-.446-1.0000175-1l0-8c0-.554.4460078-1 1.0000175-1zM25.999965 1034.3622L1 1034.3622c0 0 2.999983 2.446 2.999983 3l0 4c0 .554.446008 1 1.000017 1l20.999965 0c.55401 0 1.000018-.446 1.000018-1l0-6c0-.554-.446008-1-1.000018-1zM16.000001 1044.3622l12.999965 0c0 0-2.999983 2.446-2.999983 3l0 2c0 .554-.446008 1-1.000017 1l-8.999964 0c-.554011 0-1.000019-.446-1.000019-1l0-4c0-.554.446008-1 1.000018-1z" color="#000" opacity=".15" overflow="visible"/><path fill="#4bbfeb" d="m 5.0000174,1022.3622 24.9999656,0 c 0,0 -2.999983,2.446 -2.999983,3 l 0,6 c 0,0.554 -0.446008,1 -1.000017,1 l -20.9999655,0 C 4.4460078,1032.3622 4,1031.9162 4,1031.3622 l 0,-8 c 0,-0.554 0.4460078,-1 1.0000175,-1 z" color="#000" overflow="visible" style="isolation:auto;mix-blend-mode:normal"/><path fill="#f8b84e" style="isolation:auto;mix-blend-mode:normal" d="m 26.999982,1034.3622 -24.9999652,0 c 0,0 2.999983,2.446 2.999983,3 l 0,4 c 0,0.554 0.446008,1 1.000017,1 l 20.9999652,0 c 0.55401,0 1.000018,-0.446 1.000018,-1 l 0,-6 c 0,-0.554 -0.446008,-1 -1.000018,-1 z" color="#000" overflow="visible"/><path fill="#4bbfeb" d="m 17.000018,1044.3622 12.999965,0 c 0,0 -2.999983,2.446 -2.999983,3 l 0,2 c 0,0.554 -0.446008,1 -1.000017,1 l -8.999964,0 c -0.554011,0 -1.000019,-0.446 -1.000019,-1 l 0,-4 c 0,-0.554 0.446008,-1 1.000018,-1 z" color="#000" overflow="visible" style="isolation:auto;mix-blend-mode:normal"/><path fill="#2b4255" fill-rule="evenodd" style="line-height:normal;text-indent:0;text-align:start;text-decoration-line:none;text-decoration-style:solid;text-decoration-color:#000;text-transform:none;block-progression:tb;isolation:auto;mix-blend-mode:normal" d="M6.4999998 1024.8613l0 1 6.0000002 0 0-1-6.0000002 0zM14.5 1024.8613l0 1 1 0 0-1-1 0zM17.5 1024.8613l0 1 4 0 0-1-4 0zM23.5 1024.8613l0 1 1 0 0-1-1 0zM6.4999998 1026.8613l0 1 2 0 0-1-2 0zM9.4999998 1026.8613l0 1 5.0000002 0 0-1-5.0000002 0zM15.5 1026.8613l0 1 9 0 0-1-9 0zM6.4999998 1028.8613l0 1 5.0000002 0 0-1-5.0000002 0zM12.5 1028.8613l0 1 4 0 0-1-4 0zM17.5 1028.8613l0 1 1 0 0-1-1 0zM7.500107 1036.8613l0 1 2 0 0-1-2 0zM10.500107 1036.8613l0 1 5 0 0-1-5 0zM16.500107 1036.8613l0 1 9 0 0-1-9 0zM7.500107 1038.8613l0 1 5 0 0-1-5 0zM13.500107 1038.8613l0 1 4 0 0-1-4 0zM18.500107 1038.8613l0 1 1 0 0-1-1 0z" color="#000" font-family="sans-serif" font-weight="400" overflow="visible"/><path fill="#2b4255" style="isolation:auto;mix-blend-mode:normal" d="M19.499893 1045.8622l1 0 0 1-1 0zM19.499895 1047.8622l1 0 0 1-1 0z" color="#000" overflow="visible"/><path fill="#2b4255" fill-rule="evenodd" style="line-height:normal;text-indent:0;text-align:start;text-decoration-line:none;text-decoration-style:solid;text-decoration-color:#000;text-transform:none;block-progression:tb;isolation:auto;mix-blend-mode:normal" d="m 21.962784,1045.8613 a 0.50005,0.50005 0 0 0 -0.388672,0.7676 c 0.330528,0.5369 0.330502,0.93 0,1.4668 a 0.50005,0.50005 0 1 0 0.851562,0.5234 c 0.486588,-0.7902 0.486562,-1.7233 0,-2.5136 a 0.50005,0.50005 0 0 0 -0.46289,-0.2442 z" color="#000" font-family="sans-serif" font-weight="400" overflow="visible"/></g></g></svg>
