<svg xmlns="http://www.w3.org/2000/svg" xmlns:xlink="http://www.w3.org/1999/xlink" width="500" zoomAndPan="magnify" viewBox="0 0 375 374.999991" height="500" preserveAspectRatio="xMidYMid meet" version="1.0"><defs><clipPath id="id1"><path d="M 26 51.578125 L 133 51.578125 L 133 117 L 26 117 Z M 26 51.578125 " clip-rule="nonzero"/></clipPath><clipPath id="id2"><path d="M 162 51.578125 L 269 51.578125 L 269 117 L 162 117 Z M 162 51.578125 " clip-rule="nonzero"/></clipPath></defs><path fill="#e0dad9" d="M 69.191406 231.269531 L 26.863281 231.269531 C 23.597656 231.269531 20.980469 233.890625 20.980469 237.152344 C 20.980469 240.390625 23.597656 243.03125 26.863281 243.03125 L 69.191406 243.03125 C 72.429688 243.03125 75.070312 240.390625 75.070312 237.152344 C 75.070312 233.890625 72.429688 231.269531 69.191406 231.269531 " fill-opacity="1" fill-rule="evenodd"/><path fill="#e0dad9" d="M 177.695312 231.269531 L 90.078125 231.269531 C 86.835938 231.269531 84.195312 233.890625 84.195312 237.152344 C 84.195312 240.390625 86.835938 243.03125 90.078125 243.03125 L 177.695312 243.03125 C 180.9375 243.03125 183.578125 240.390625 183.578125 237.152344 C 183.578125 233.890625 180.9375 231.269531 177.695312 231.269531 " fill-opacity="1" fill-rule="evenodd"/><path fill="#e0dad9" d="M 73.761719 211.90625 L 73.761719 226.699219 C 73.738281 229.9375 76.382812 232.578125 79.621094 232.578125 C 82.886719 232.578125 85.503906 229.9375 85.527344 226.699219 L 85.527344 211.90625 C 85.503906 208.667969 82.886719 206.027344 79.621094 206.027344 C 76.382812 206.027344 73.738281 208.667969 73.761719 211.90625 " fill-opacity="1" fill-rule="evenodd"/><path fill="#918385" d="M 26.792969 84.015625 L 26.792969 179.269531 C 26.792969 197.300781 50.4375 211.90625 79.621094 211.90625 C 108.828125 211.90625 132.496094 197.300781 132.472656 179.269531 L 132.472656 84.015625 L 26.792969 84.015625 " fill-opacity="1" fill-rule="nonzero"/><path fill="#918385" d="M 268.578125 149.15625 L 268.578125 84.015625 L 162.875 84.015625 L 162.875 179.269531 C 162.875 181.015625 162.921875 186.59375 162.921875 186.59375 C 187.140625 162.867188 213.015625 140.839844 268.578125 149.15625 " fill-opacity="1" fill-rule="nonzero"/><path fill="#5c4d50" d="M 162.828125 118.515625 C 168 127.289062 179.144531 135.488281 197.597656 139.832031 C 200.769531 140.589844 202.722656 143.734375 201.984375 146.90625 C 201.25 150.074219 198.078125 152.027344 194.910156 151.292969 C 180.800781 147.960938 170.296875 142.539062 162.828125 136.199219 L 162.828125 118.515625 " fill-opacity="1" fill-rule="evenodd"/><path fill="#5c4d50" d="M 268.578125 118.515625 C 263.410156 127.289062 252.242188 135.488281 233.789062 139.832031 C 230.617188 140.589844 228.664062 143.734375 229.398438 146.90625 C 230.160156 150.074219 233.328125 152.027344 236.476562 151.292969 C 250.609375 147.960938 261.113281 142.539062 268.578125 136.199219 L 268.578125 118.515625 " fill-opacity="1" fill-rule="evenodd"/><g clip-path="url(#id1)"><path fill="#5c4d50" d="M 132.472656 84.015625 C 132.472656 102.046875 108.828125 116.652344 79.644531 116.652344 C 50.460938 116.652344 26.792969 102.046875 26.792969 84.015625 C 26.792969 65.984375 50.460938 51.375 79.644531 51.375 C 108.828125 51.375 132.472656 65.984375 132.472656 84.015625 " fill-opacity="1" fill-rule="nonzero"/></g><g clip-path="url(#id2)"><path fill="#5c4d50" d="M 268.511719 84.015625 C 268.511719 102.046875 244.84375 116.652344 215.679688 116.652344 C 186.476562 116.652344 162.828125 102.046875 162.828125 84.015625 C 162.828125 65.984375 186.476562 51.375 215.679688 51.375 C 244.84375 51.375 268.511719 65.984375 268.511719 84.015625 " fill-opacity="1" fill-rule="nonzero"/></g><path fill="#87d7e0" d="M 180.777344 150.925781 C 156.050781 175.640625 156.050781 215.71875 180.777344 240.457031 C 200.8125 260.464844 231.421875 264.554688 255.78125 251.300781 C 259.777344 249.070312 264.765625 249.785156 267.980469 253.023438 C 275.105469 260.003906 286.160156 271.078125 286.160156 271.078125 L 300.957031 256.285156 C 300.957031 256.285156 289.902344 245.214844 282.851562 238.160156 C 279.585938 234.898438 278.898438 229.871094 281.125 225.851562 C 294.453125 201.546875 290.363281 170.953125 270.347656 150.925781 C 245.601562 126.1875 205.5 126.1875 180.777344 150.925781 " fill-opacity="1" fill-rule="nonzero"/><path fill="#ffffff" d="M 197.871094 168.011719 C 213.152344 152.714844 237.949219 152.714844 253.253906 168.011719 C 268.535156 183.289062 268.535156 208.070312 253.230469 223.347656 C 237.949219 238.644531 213.175781 238.644531 197.871094 223.347656 C 182.589844 208.070312 182.589844 183.289062 197.871094 168.011719 " fill-opacity="1" fill-rule="nonzero"/><path fill="#f8a137" d="M 350.453125 294.664062 C 353.648438 297.859375 353.648438 303.027344 350.453125 306.21875 C 346.179688 310.492188 340.414062 316.257812 336.136719 320.527344 C 332.945312 323.722656 327.773438 323.722656 324.578125 320.527344 C 314.996094 310.972656 295.992188 291.957031 286.410156 282.378906 C 283.21875 279.207031 283.21875 274.015625 286.410156 270.824219 C 290.683594 266.574219 296.476562 260.785156 300.726562 256.515625 C 303.921875 253.320312 309.09375 253.320312 312.285156 256.515625 C 321.867188 266.09375 340.871094 285.085938 350.453125 294.664062 " fill-opacity="1" fill-rule="evenodd"/><path fill="#5c4d50" d="M 26.792969 125.453125 C 27.757812 126.4375 28.816406 127.425781 29.941406 128.367188 C 41.132812 137.785156 59.238281 143.757812 79.644531 143.757812 C 100.027344 143.757812 118.15625 137.785156 129.347656 128.367188 C 130.476562 127.425781 131.507812 126.460938 132.472656 125.453125 L 132.472656 140.75 C 119.46875 149.730469 100.648438 155.519531 79.644531 155.519531 C 58.640625 155.519531 39.800781 149.730469 26.792969 140.75 Z M 26.792969 159.078125 C 27.757812 160.089844 28.816406 161.078125 29.941406 161.996094 C 41.132812 171.4375 59.238281 177.386719 79.644531 177.386719 C 100.027344 177.386719 118.15625 171.4375 129.347656 161.996094 C 130.476562 161.078125 131.507812 160.089844 132.472656 159.078125 L 132.472656 174.398438 C 119.46875 183.378906 100.648438 189.144531 79.644531 189.144531 C 58.640625 189.144531 39.800781 183.378906 26.792969 174.398438 L 26.792969 159.078125 " fill-opacity="1" fill-rule="nonzero"/><path fill="#ffffff" d="M 78.035156 170.539062 L 81.230469 170.539062 C 84.492188 170.539062 87.113281 167.898438 87.113281 164.660156 C 87.113281 161.421875 84.492188 158.78125 81.230469 158.78125 L 78.035156 158.78125 C 74.796875 158.78125 72.152344 161.421875 72.152344 164.660156 C 72.152344 167.898438 74.796875 170.539062 78.035156 170.539062 " fill-opacity="1" fill-rule="evenodd"/><path fill="#ffffff" d="M 78.035156 202.238281 L 81.230469 202.238281 C 84.492188 202.238281 87.113281 199.597656 87.113281 196.359375 C 87.113281 193.097656 84.492188 190.476562 81.230469 190.476562 L 78.035156 190.476562 C 74.796875 190.476562 72.152344 193.097656 72.152344 196.359375 C 72.152344 199.597656 74.796875 202.238281 78.035156 202.238281 " fill-opacity="1" fill-rule="evenodd"/><path fill="#ffffff" d="M 78.035156 138.867188 L 81.230469 138.867188 C 84.492188 138.867188 87.113281 136.222656 87.113281 132.984375 C 87.113281 129.722656 84.492188 127.105469 81.230469 127.105469 L 78.035156 127.105469 C 74.796875 127.105469 72.152344 129.722656 72.152344 132.984375 C 72.152344 136.222656 74.796875 138.867188 78.035156 138.867188 " fill-opacity="1" fill-rule="evenodd"/><path fill="#5461b7" d="M 273.542969 289.796875 C 270.28125 289.796875 267.660156 292.4375 267.660156 295.675781 C 267.660156 298.914062 270.28125 301.558594 273.542969 301.558594 C 276.78125 301.558594 279.425781 298.914062 279.425781 295.675781 C 279.425781 292.4375 276.78125 289.796875 273.542969 289.796875 " fill-opacity="1" fill-rule="nonzero"/><path fill="#5461b7" d="M 249.324219 289.796875 C 246.082031 289.796875 243.441406 292.4375 243.441406 295.675781 C 243.441406 298.914062 246.082031 301.558594 249.324219 301.558594 C 252.585938 301.558594 255.207031 298.914062 255.207031 295.675781 C 255.207031 292.4375 252.585938 289.796875 249.324219 289.796875 " fill-opacity="1" fill-rule="nonzero"/><path fill="#5461b7" d="M 225.125 289.796875 C 221.886719 289.796875 219.242188 292.4375 219.242188 295.675781 C 219.242188 298.914062 221.886719 301.558594 225.125 301.558594 C 228.390625 301.558594 231.007812 298.914062 231.007812 295.675781 C 231.007812 292.4375 228.390625 289.796875 225.125 289.796875 " fill-opacity="1" fill-rule="nonzero"/><path fill="#5461b7" d="M 200.953125 289.796875 C 197.6875 289.796875 195.070312 292.4375 195.070312 295.675781 C 195.070312 298.914062 197.6875 301.558594 200.953125 301.558594 C 204.191406 301.558594 206.835938 298.914062 206.835938 295.675781 C 206.835938 292.4375 204.191406 289.796875 200.953125 289.796875 " fill-opacity="1" fill-rule="nonzero"/><path fill="#5461b7" d="M 176.730469 289.796875 C 173.492188 289.796875 170.847656 292.4375 170.847656 295.675781 C 170.847656 298.914062 173.492188 301.558594 176.730469 301.558594 C 179.972656 301.558594 182.613281 298.914062 182.613281 295.675781 C 182.613281 292.4375 179.972656 289.796875 176.730469 289.796875 " fill-opacity="1" fill-rule="nonzero"/><path fill="#5461b7" d="M 152.535156 289.796875 C 149.292969 289.796875 146.652344 292.4375 146.652344 295.675781 C 146.652344 298.914062 149.292969 301.558594 152.535156 301.558594 C 155.773438 301.558594 158.417969 298.914062 158.417969 295.675781 C 158.417969 292.4375 155.773438 289.796875 152.535156 289.796875 " fill-opacity="1" fill-rule="nonzero"/><path fill="#5461b7" d="M 128.339844 289.796875 C 125.097656 289.796875 122.457031 292.4375 122.457031 295.675781 C 122.457031 298.914062 125.097656 301.558594 128.339844 301.558594 C 131.578125 301.558594 134.21875 298.914062 134.21875 295.675781 C 134.21875 292.4375 131.578125 289.796875 128.339844 289.796875 " fill-opacity="1" fill-rule="nonzero"/><path fill="#5461b7" d="M 104.117188 289.796875 C 100.878906 289.796875 98.234375 292.4375 98.234375 295.675781 C 98.234375 298.914062 100.878906 301.558594 104.117188 301.558594 C 107.382812 301.558594 110 298.914062 110 295.675781 C 110 292.4375 107.382812 289.796875 104.117188 289.796875 " fill-opacity="1" fill-rule="nonzero"/><path fill="#5461b7" d="M 79.921875 289.796875 C 76.679688 289.796875 74.039062 292.4375 74.039062 295.675781 C 74.039062 298.914062 76.679688 301.558594 79.921875 301.558594 C 83.183594 301.558594 85.804688 298.914062 85.804688 295.675781 C 85.804688 292.4375 83.183594 289.796875 79.921875 289.796875 " fill-opacity="1" fill-rule="nonzero"/><path fill="#5461b7" d="M 79.644531 265.910156 C 76.382812 265.910156 73.761719 268.527344 73.761719 271.789062 C 73.761719 275.027344 76.382812 277.667969 79.644531 277.667969 C 82.886719 277.667969 85.527344 275.027344 85.527344 271.789062 C 85.527344 268.527344 82.886719 265.910156 79.644531 265.910156 " fill-opacity="1" fill-rule="nonzero"/><path fill="#c6bbbb" d="M 93.9375 237.152344 C 93.9375 245.050781 87.550781 251.4375 79.644531 251.4375 C 71.71875 251.4375 65.328125 245.050781 65.328125 237.152344 C 65.328125 229.25 71.71875 222.839844 79.644531 222.839844 C 87.550781 222.839844 93.9375 229.25 93.9375 237.152344 " fill-opacity="1" fill-rule="nonzero"/></svg>