<svg xmlns="http://www.w3.org/2000/svg" xmlns:xlink="http://www.w3.org/1999/xlink" width="200" zoomAndPan="magnify" viewBox="0 0 150 149.999998" height="200" preserveAspectRatio="xMidYMid meet" version="1.0"><defs><clipPath id="id1"><path d="M 40 17.113281 L 148 17.113281 L 148 31 L 40 31 Z M 40 17.113281 " clip-rule="nonzero"/></clipPath><clipPath id="id2"><path d="M 28 17.113281 L 135 17.113281 L 135 134.113281 L 28 134.113281 Z M 28 17.113281 " clip-rule="nonzero"/></clipPath><clipPath id="id3"><path d="M 93 17.113281 L 135 17.113281 L 135 134.113281 L 93 134.113281 Z M 93 17.113281 " clip-rule="nonzero"/></clipPath><clipPath id="id4"><path d="M 2.25 121 L 109 121 L 109 134.113281 L 2.25 134.113281 Z M 2.25 121 " clip-rule="nonzero"/></clipPath></defs><g clip-path="url(#id1)"><path fill="#d8cfbc" d="M 53.699219 30.570312 L 147.097656 30.570312 C 147.019531 22.671875 141.347656 17.03125 134.359375 17.03125 L 40.957031 17.03125 C 47.945312 17.03125 53.617188 22.671875 53.699219 30.570312 Z M 53.699219 30.570312 " fill-opacity="1" fill-rule="nonzero"/></g><g clip-path="url(#id2)"><path fill="#f2ebda" d="M 121.589844 29.808594 C 121.589844 22.75 127.296875 17.03125 134.335938 17.03125 L 40.933594 17.03125 C 33.894531 17.03125 28.1875 22.75 28.1875 29.808594 L 28.1875 134.78125 L 108.847656 134.78125 C 115.886719 134.78125 121.589844 129.058594 121.589844 122 Z M 121.589844 29.808594 " fill-opacity="1" fill-rule="nonzero"/></g><g clip-path="url(#id3)"><path fill="#e2d9c5" d="M 118.550781 17.03125 C 111.511719 17.03125 105.808594 22.753906 105.808594 29.808594 L 105.808594 122 C 105.808594 129.058594 100.101562 134.78125 93.0625 134.78125 L 108.847656 134.78125 C 115.886719 134.78125 121.589844 129.058594 121.589844 122 L 121.589844 29.808594 C 121.589844 22.753906 127.296875 17.03125 134.335938 17.03125 Z M 118.550781 17.03125 " fill-opacity="1" fill-rule="nonzero"/></g><g clip-path="url(#id4)"><path fill="#e2d9c5" d="M 95.820312 121.238281 L 2.417969 121.238281 C 2.5 129.136719 8.171875 134.78125 15.160156 134.78125 L 108.5625 134.78125 C 101.574219 134.78125 95.902344 129.136719 95.820312 121.238281 Z M 95.820312 121.238281 " fill-opacity="1" fill-rule="nonzero"/></g><path fill="#a3d8a3" d="M 87.246094 97.03125 C 89.871094 88.851562 92.230469 80.5 97.804688 74.121094 C 109.976562 60.183594 134.378906 56.089844 152.082031 56.546875 C 146.542969 61.132812 141.714844 65.769531 136.117188 71.84375 C 129.847656 78.648438 116.160156 87.707031 109.574219 89.738281 C 99.316406 92.902344 94.570312 93.429688 87.246094 97.03125 Z M 87.246094 97.03125 " fill-opacity="1" fill-rule="nonzero"/><path fill="#87c489" d="M 87.246094 97.03125 C 89.871094 88.851562 134.378906 56.089844 152.082031 56.546875 C 146.542969 61.132812 141.714844 65.769531 136.117188 71.84375 C 129.847656 78.648438 116.160156 87.707031 109.574219 89.738281 C 99.316406 92.902344 94.570312 93.429688 87.246094 97.03125 Z M 87.246094 97.03125 " fill-opacity="1" fill-rule="nonzero"/><path fill="#69b96d" d="M 75.917969 112.519531 C 75.917969 112.519531 78.007812 105.5625 78.386719 104.949219 C 80.472656 101.59375 82.671875 99.265625 85.398438 95.992188 C 94.828125 84.671875 125.726562 64.84375 126.304688 65.957031 C 126.882812 67.066406 97.585938 87.1875 88.542969 98.042969 C 86.015625 101.078125 84.140625 104.09375 82.117188 107.355469 C 81.726562 107.976562 75.917969 112.519531 75.917969 112.519531 Z M 75.917969 112.519531 " fill-opacity="1" fill-rule="nonzero"/><path fill="#ff801d" d="M 109.378906 44.414062 L 45.121094 44.414062 C 43.910156 44.414062 42.929688 43.433594 42.929688 42.214844 C 42.929688 41.003906 43.910156 40.019531 45.121094 40.019531 L 109.378906 40.019531 C 110.589844 40.019531 111.570312 41.003906 111.570312 42.214844 C 111.570312 43.433594 110.589844 44.414062 109.378906 44.414062 Z M 109.378906 44.414062 " fill-opacity="1" fill-rule="nonzero"/><path fill="#efb635" d="M 68.050781 111.789062 L 45.121094 111.789062 C 43.910156 111.789062 42.929688 110.808594 42.929688 109.59375 C 42.929688 108.378906 43.910156 107.394531 45.121094 107.394531 L 68.050781 107.394531 C 69.261719 107.394531 70.242188 108.378906 70.242188 109.59375 C 70.242188 110.808594 69.261719 111.789062 68.050781 111.789062 Z M 68.050781 111.789062 " fill-opacity="1" fill-rule="nonzero"/><path fill="#ff801d" d="M 77.25 89.332031 L 45.121094 89.332031 C 43.910156 89.332031 42.929688 88.347656 42.929688 87.132812 C 42.929688 85.921875 43.910156 84.9375 45.121094 84.9375 L 77.25 84.9375 C 78.460938 84.9375 79.441406 85.921875 79.441406 87.132812 C 79.441406 88.347656 78.460938 89.332031 77.25 89.332031 Z M 77.25 89.332031 " fill-opacity="1" fill-rule="nonzero"/><path fill="#efb635" d="M 92.890625 66.875 L 45.121094 66.875 C 43.910156 66.875 42.929688 65.890625 42.929688 64.675781 C 42.929688 63.460938 43.910156 62.476562 45.121094 62.476562 L 92.890625 62.476562 C 94.101562 62.476562 95.082031 63.460938 95.082031 64.675781 C 95.082031 65.890625 94.101562 66.875 92.890625 66.875 Z M 92.890625 66.875 " fill-opacity="1" fill-rule="nonzero"/></svg>