<svg xmlns="http://www.w3.org/2000/svg" xmlns:xlink="http://www.w3.org/1999/xlink" width="200" zoomAndPan="magnify" viewBox="0 0 150 149.999998" height="200" preserveAspectRatio="xMidYMid meet" version="1.0"><defs><clipPath id="id1"><path d="M 0.953125 0.953125 L 148.703125 0.953125 L 148.703125 148.703125 L 0.953125 148.703125 Z M 0.953125 0.953125 " clip-rule="nonzero"/></clipPath></defs><g clip-path="url(#id1)"><path fill="#f5b9b9" d="M 148.703125 74.828125 C 148.703125 76.039062 148.675781 77.246094 148.613281 78.453125 C 148.554688 79.660156 148.46875 80.867188 148.347656 82.070312 C 148.230469 83.273438 148.082031 84.472656 147.90625 85.667969 C 147.726562 86.863281 147.519531 88.054688 147.285156 89.242188 C 147.046875 90.425781 146.785156 91.605469 146.488281 92.777344 C 146.195312 93.953125 145.875 95.117188 145.523438 96.273438 C 145.171875 97.429688 144.792969 98.578125 144.386719 99.71875 C 143.976562 100.855469 143.542969 101.984375 143.082031 103.101562 C 142.617188 104.214844 142.128906 105.320312 141.609375 106.414062 C 141.09375 107.507812 140.550781 108.585938 139.980469 109.652344 C 139.410156 110.71875 138.816406 111.769531 138.195312 112.808594 C 137.570312 113.84375 136.925781 114.867188 136.253906 115.871094 C 135.582031 116.878906 134.886719 117.867188 134.167969 118.835938 C 133.445312 119.808594 132.703125 120.761719 131.933594 121.695312 C 131.167969 122.628906 130.378906 123.542969 129.566406 124.441406 C 128.753906 125.335938 127.921875 126.210938 127.066406 127.066406 C 126.210938 127.921875 125.335938 128.753906 124.441406 129.566406 C 123.542969 130.378906 122.628906 131.167969 121.695312 131.933594 C 120.761719 132.703125 119.808594 133.445312 118.835938 134.167969 C 117.867188 134.886719 116.878906 135.582031 115.871094 136.253906 C 114.867188 136.925781 113.84375 137.570312 112.808594 138.195312 C 111.769531 138.816406 110.71875 139.410156 109.652344 139.980469 C 108.585938 140.550781 107.507812 141.09375 106.414062 141.609375 C 105.320312 142.128906 104.214844 142.617188 103.101562 143.082031 C 101.984375 143.542969 100.855469 143.976562 99.71875 144.386719 C 98.578125 144.792969 97.429688 145.171875 96.273438 145.523438 C 95.117188 145.875 93.953125 146.195312 92.777344 146.488281 C 91.605469 146.785156 90.425781 147.046875 89.242188 147.285156 C 88.054688 147.519531 86.863281 147.726562 85.667969 147.90625 C 84.472656 148.082031 83.273438 148.230469 82.070312 148.347656 C 80.867188 148.46875 79.660156 148.554688 78.453125 148.613281 C 77.246094 148.675781 76.039062 148.703125 74.828125 148.703125 C 73.621094 148.703125 72.410156 148.675781 71.203125 148.613281 C 69.996094 148.554688 68.792969 148.46875 67.589844 148.347656 C 66.386719 148.230469 65.183594 148.082031 63.988281 147.90625 C 62.792969 147.726562 61.601562 147.519531 60.417969 147.285156 C 59.230469 147.046875 58.050781 146.785156 56.878906 146.488281 C 55.707031 146.195312 54.542969 145.875 53.382812 145.523438 C 52.226562 145.171875 51.078125 144.792969 49.941406 144.386719 C 48.804688 143.976562 47.675781 143.542969 46.558594 143.082031 C 45.441406 142.617188 44.335938 142.128906 43.242188 141.609375 C 42.152344 141.09375 41.070312 140.550781 40.003906 139.980469 C 38.9375 139.410156 37.886719 138.816406 36.851562 138.195312 C 35.8125 137.570312 34.792969 136.925781 33.785156 136.253906 C 32.78125 135.582031 31.792969 134.886719 30.820312 134.167969 C 29.851562 133.445312 28.898438 132.703125 27.964844 131.933594 C 27.027344 131.167969 26.113281 130.378906 25.21875 129.566406 C 24.320312 128.753906 23.445312 127.921875 22.589844 127.066406 C 21.738281 126.210938 20.902344 125.335938 20.089844 124.441406 C 19.28125 123.542969 18.488281 122.628906 17.722656 121.695312 C 16.957031 120.761719 16.210938 119.808594 15.492188 118.835938 C 14.773438 117.867188 14.074219 116.878906 13.402344 115.871094 C 12.734375 114.867188 12.085938 113.84375 11.464844 112.808594 C 10.84375 111.769531 10.246094 110.71875 9.675781 109.652344 C 9.105469 108.585938 8.5625 107.507812 8.046875 106.414062 C 7.53125 105.320312 7.039062 104.214844 6.578125 103.101562 C 6.113281 101.984375 5.679688 100.855469 5.273438 99.71875 C 4.863281 98.578125 4.484375 97.429688 4.136719 96.273438 C 3.785156 95.117188 3.460938 93.953125 3.167969 92.777344 C 2.875 91.605469 2.609375 90.425781 2.375 89.242188 C 2.136719 88.054688 1.929688 86.863281 1.753906 85.667969 C 1.578125 84.472656 1.429688 83.273438 1.308594 82.070312 C 1.191406 80.867188 1.101562 79.660156 1.042969 78.453125 C 0.984375 77.246094 0.953125 76.039062 0.953125 74.828125 C 0.953125 73.621094 0.984375 72.410156 1.042969 71.203125 C 1.101562 69.996094 1.191406 68.792969 1.308594 67.589844 C 1.429688 66.386719 1.578125 65.183594 1.753906 63.988281 C 1.929688 62.792969 2.136719 61.601562 2.375 60.417969 C 2.609375 59.230469 2.875 58.050781 3.167969 56.878906 C 3.460938 55.707031 3.785156 54.542969 4.136719 53.382812 C 4.484375 52.226562 4.863281 51.078125 5.273438 49.941406 C 5.679688 48.804688 6.113281 47.675781 6.578125 46.558594 C 7.039062 45.441406 7.53125 44.335938 8.046875 43.242188 C 8.5625 42.152344 9.105469 41.070312 9.675781 40.003906 C 10.246094 38.9375 10.84375 37.886719 11.464844 36.851562 C 12.085938 35.8125 12.734375 34.792969 13.402344 33.785156 C 14.074219 32.78125 14.773438 31.792969 15.492188 30.820312 C 16.210938 29.851562 16.957031 28.898438 17.722656 27.964844 C 18.488281 27.027344 19.28125 26.113281 20.089844 25.21875 C 20.902344 24.320312 21.738281 23.445312 22.589844 22.589844 C 23.445312 21.738281 24.320312 20.902344 25.21875 20.089844 C 26.113281 19.28125 27.027344 18.488281 27.964844 17.722656 C 28.898438 16.957031 29.851562 16.210938 30.820312 15.492188 C 31.792969 14.773438 32.78125 14.074219 33.785156 13.402344 C 34.792969 12.734375 35.8125 12.085938 36.851562 11.464844 C 37.886719 10.84375 38.9375 10.246094 40.003906 9.675781 C 41.070312 9.105469 42.152344 8.5625 43.242188 8.046875 C 44.335938 7.53125 45.441406 7.039062 46.558594 6.578125 C 47.675781 6.113281 48.804688 5.679688 49.941406 5.273438 C 51.078125 4.863281 52.226562 4.484375 53.382812 4.136719 C 54.542969 3.785156 55.707031 3.460938 56.878906 3.167969 C 58.050781 2.875 59.230469 2.609375 60.417969 2.375 C 61.601562 2.136719 62.792969 1.929688 63.988281 1.753906 C 65.183594 1.578125 66.386719 1.429688 67.589844 1.308594 C 68.792969 1.191406 69.996094 1.101562 71.203125 1.042969 C 72.410156 0.984375 73.621094 0.953125 74.828125 0.953125 C 76.039062 0.953125 77.246094 0.984375 78.453125 1.042969 C 79.660156 1.101562 80.867188 1.191406 82.070312 1.308594 C 83.273438 1.429688 84.472656 1.578125 85.667969 1.753906 C 86.863281 1.929688 88.054688 2.136719 89.242188 2.375 C 90.425781 2.609375 91.605469 2.875 92.777344 3.167969 C 93.953125 3.460938 95.117188 3.785156 96.273438 4.136719 C 97.429688 4.484375 98.578125 4.863281 99.71875 5.273438 C 100.855469 5.679688 101.984375 6.113281 103.101562 6.578125 C 104.214844 7.039062 105.320312 7.53125 106.414062 8.046875 C 107.507812 8.5625 108.585938 9.105469 109.652344 9.675781 C 110.71875 10.246094 111.769531 10.84375 112.808594 11.464844 C 113.84375 12.085938 114.867188 12.734375 115.871094 13.402344 C 116.878906 14.074219 117.867188 14.773438 118.835938 15.492188 C 119.808594 16.210938 120.761719 16.957031 121.695312 17.722656 C 122.628906 18.488281 123.542969 19.28125 124.441406 20.089844 C 125.335938 20.902344 126.210938 21.738281 127.066406 22.589844 C 127.921875 23.445312 128.753906 24.320312 129.566406 25.21875 C 130.378906 26.113281 131.167969 27.027344 131.933594 27.964844 C 132.703125 28.898438 133.445312 29.851562 134.167969 30.820312 C 134.886719 31.792969 135.582031 32.78125 136.253906 33.785156 C 136.925781 34.792969 137.570312 35.8125 138.195312 36.851562 C 138.816406 37.886719 139.410156 38.9375 139.980469 40.003906 C 140.550781 41.070312 141.09375 42.152344 141.609375 43.242188 C 142.128906 44.335938 142.617188 45.441406 143.082031 46.558594 C 143.542969 47.675781 143.976562 48.804688 144.386719 49.941406 C 144.792969 51.078125 145.171875 52.226562 145.523438 53.382812 C 145.875 54.542969 146.195312 55.707031 146.488281 56.878906 C 146.785156 58.050781 147.046875 59.230469 147.285156 60.417969 C 147.519531 61.601562 147.726562 62.792969 147.90625 63.988281 C 148.082031 65.183594 148.230469 66.386719 148.347656 67.589844 C 148.46875 68.792969 148.554688 69.996094 148.613281 71.203125 C 148.675781 72.410156 148.703125 73.621094 148.703125 74.828125 Z M 148.703125 74.828125 " fill-opacity="1" fill-rule="nonzero"/></g><path fill="#000000" d="M 109.078125 111.523438 L 40.578125 111.523438 C 36.292969 111.523438 32.804688 108.035156 32.804688 103.746094 L 32.804688 45.910156 C 32.804688 41.625 36.292969 38.136719 40.578125 38.136719 L 109.078125 38.136719 C 113.367188 38.136719 116.855469 41.625 116.855469 45.910156 L 116.855469 103.746094 C 116.851562 108.035156 113.367188 111.523438 109.078125 111.523438 Z M 40.578125 40.761719 C 37.742188 40.761719 35.429688 43.070312 35.429688 45.910156 L 35.429688 103.746094 C 35.429688 106.585938 37.742188 108.894531 40.578125 108.894531 L 109.078125 108.894531 C 111.917969 108.894531 114.226562 106.585938 114.226562 103.746094 L 114.226562 45.910156 C 114.226562 43.070312 111.917969 40.761719 109.078125 40.761719 Z M 40.578125 40.761719 " fill-opacity="1" fill-rule="evenodd"/><path fill="#000000" d="M 115.539062 55.734375 L 34.117188 55.734375 C 33.390625 55.734375 32.804688 55.144531 32.804688 54.421875 C 32.804688 53.695312 33.390625 53.105469 34.117188 53.105469 L 115.539062 53.105469 C 116.265625 53.105469 116.855469 53.695312 116.855469 54.421875 C 116.855469 55.144531 116.265625 55.734375 115.542969 55.734375 Z M 115.539062 55.734375 " fill-opacity="1" fill-rule="evenodd"/><path fill="#000000" d="M 93.644531 48.246094 L 87.921875 48.246094 C 87.195312 48.246094 86.609375 47.660156 86.609375 46.933594 C 86.609375 46.207031 87.195312 45.621094 87.921875 45.621094 L 93.644531 45.621094 C 94.371094 45.621094 94.957031 46.207031 94.957031 46.933594 C 94.957031 47.660156 94.371094 48.246094 93.644531 48.246094 Z M 93.644531 48.246094 " fill-opacity="1" fill-rule="evenodd"/><path fill="#000000" d="M 107.183594 48.246094 L 101.464844 48.246094 C 100.738281 48.246094 100.148438 47.660156 100.148438 46.933594 C 100.148438 46.207031 100.738281 45.621094 101.464844 45.621094 L 107.183594 45.621094 C 107.910156 45.621094 108.496094 46.207031 108.496094 46.933594 C 108.496094 47.660156 107.910156 48.246094 107.183594 48.246094 Z M 107.183594 48.246094 " fill-opacity="1" fill-rule="evenodd"/><path fill="#000000" d="M 80.105469 48.246094 L 74.382812 48.246094 C 73.65625 48.246094 73.070312 47.660156 73.070312 46.933594 C 73.070312 46.207031 73.65625 45.621094 74.382812 45.621094 L 80.105469 45.621094 C 80.828125 45.621094 81.417969 46.207031 81.417969 46.933594 C 81.417969 47.660156 80.828125 48.246094 80.105469 48.246094 Z M 80.105469 48.246094 " fill-opacity="1" fill-rule="evenodd"/><path fill="#000000" d="M 92.472656 93.054688 L 57.183594 93.054688 C 56.457031 93.054688 55.871094 92.464844 55.871094 91.742188 L 55.871094 85.976562 C 55.871094 85.25 56.457031 84.664062 57.183594 84.664062 L 92.472656 84.664062 C 93.199219 84.664062 93.789062 85.25 93.789062 85.976562 L 93.789062 91.742188 C 93.789062 92.464844 93.199219 93.054688 92.472656 93.054688 Z M 58.496094 90.425781 L 91.160156 90.425781 L 91.160156 87.289062 L 58.496094 87.289062 Z M 58.496094 90.425781 " fill-opacity="1" fill-rule="evenodd"/><path fill="#000000" d="M 80.355469 81.796875 L 69.300781 81.796875 C 67.898438 81.796875 66.757812 80.65625 66.757812 79.253906 L 66.757812 70.25 C 66.757812 68.847656 67.898438 67.707031 69.300781 67.707031 L 80.355469 67.707031 C 81.757812 67.707031 82.898438 68.847656 82.898438 70.25 L 82.898438 79.253906 C 82.898438 80.65625 81.757812 81.796875 80.355469 81.796875 Z M 69.386719 79.171875 L 80.273438 79.171875 L 80.273438 70.332031 L 69.386719 70.332031 Z M 69.386719 79.171875 " fill-opacity="1" fill-rule="evenodd"/><path fill="#000000" d="M 79.152344 70.332031 L 70.503906 70.332031 C 69.78125 70.332031 69.191406 69.746094 69.191406 69.019531 L 69.191406 64.722656 C 69.191406 61.613281 71.71875 59.085938 74.828125 59.085938 C 77.9375 59.085938 80.464844 61.613281 80.464844 64.722656 L 80.464844 69.019531 C 80.464844 69.746094 79.878906 70.332031 79.152344 70.332031 Z M 71.820312 67.707031 L 77.839844 67.707031 L 77.839844 64.722656 C 77.839844 63.0625 76.488281 61.710938 74.828125 61.710938 C 73.167969 61.710938 71.820312 63.0625 71.820312 64.722656 Z M 71.820312 67.707031 " fill-opacity="1" fill-rule="evenodd"/><path fill="#000000" d="M 92.472656 104.269531 L 57.183594 104.269531 C 56.457031 104.269531 55.871094 103.683594 55.871094 102.957031 L 55.871094 97.191406 C 55.871094 96.464844 56.457031 95.878906 57.183594 95.878906 L 92.472656 95.878906 C 93.199219 95.878906 93.789062 96.464844 93.789062 97.191406 L 93.789062 102.957031 C 93.789062 103.683594 93.199219 104.269531 92.472656 104.269531 Z M 58.496094 101.644531 L 91.160156 101.644531 L 91.160156 98.503906 L 58.496094 98.503906 Z M 58.496094 101.644531 " fill-opacity="1" fill-rule="evenodd"/><path fill="#d1a263" d="M 35.429688 53.105469 L 114.226562 53.105469 L 114.226562 45.910156 C 114.226562 43.070312 111.917969 40.761719 109.078125 40.761719 L 40.578125 40.761719 C 37.742188 40.761719 35.429688 43.070312 35.429688 45.910156 Z M 74.382812 48.246094 C 73.65625 48.246094 73.070312 47.660156 73.070312 46.933594 C 73.070312 46.207031 73.65625 45.621094 74.382812 45.621094 L 80.105469 45.621094 C 80.828125 45.621094 81.417969 46.207031 81.417969 46.933594 C 81.417969 47.660156 80.828125 48.246094 80.105469 48.246094 Z M 87.921875 48.246094 C 87.195312 48.246094 86.609375 47.660156 86.609375 46.933594 C 86.609375 46.207031 87.195312 45.621094 87.921875 45.621094 L 93.644531 45.621094 C 94.371094 45.621094 94.957031 46.207031 94.957031 46.933594 C 94.957031 47.660156 94.371094 48.246094 93.644531 48.246094 Z M 101.464844 48.246094 C 100.738281 48.246094 100.148438 47.660156 100.148438 46.933594 C 100.148438 46.207031 100.738281 45.621094 101.464844 45.621094 L 107.183594 45.621094 C 107.910156 45.621094 108.496094 46.207031 108.496094 46.933594 C 108.496094 47.660156 107.910156 48.246094 107.183594 48.246094 Z M 101.464844 48.246094 " fill-opacity="1" fill-rule="evenodd"/><path fill="#a4b7bd" d="M 114.226562 55.734375 L 35.433594 55.734375 L 35.433594 103.746094 C 35.433594 106.585938 37.742188 108.894531 40.578125 108.894531 L 109.078125 108.894531 C 111.917969 108.894531 114.226562 106.585938 114.226562 103.746094 Z M 57.183594 84.664062 L 92.472656 84.664062 C 93.199219 84.664062 93.789062 85.25 93.789062 85.976562 L 93.789062 91.738281 C 93.789062 92.464844 93.199219 93.054688 92.472656 93.054688 L 57.183594 93.054688 C 56.457031 93.054688 55.871094 92.464844 55.871094 91.738281 L 55.871094 85.976562 C 55.871094 85.25 56.457031 84.664062 57.183594 84.664062 Z M 57.183594 95.878906 L 92.472656 95.878906 C 93.199219 95.878906 93.789062 96.464844 93.789062 97.191406 L 93.789062 102.957031 C 93.789062 103.683594 93.199219 104.269531 92.472656 104.269531 L 57.183594 104.269531 C 56.457031 104.269531 55.871094 103.683594 55.871094 102.957031 L 55.871094 97.191406 C 55.871094 96.464844 56.457031 95.878906 57.183594 95.878906 Z M 66.757812 70.25 C 66.757812 68.882812 67.839844 67.765625 69.191406 67.710938 L 69.191406 64.722656 C 69.191406 61.613281 71.71875 59.085938 74.828125 59.085938 C 77.9375 59.085938 80.464844 61.613281 80.464844 64.722656 L 80.464844 67.710938 C 81.816406 67.765625 82.898438 68.882812 82.898438 70.25 L 82.898438 79.253906 C 82.898438 80.65625 81.757812 81.796875 80.355469 81.796875 L 69.300781 81.796875 C 67.898438 81.796875 66.757812 80.65625 66.757812 79.253906 Z M 66.757812 70.25 " fill-opacity="1" fill-rule="evenodd"/><path fill="#a4b7bd" d="M 77.839844 64.722656 C 77.839844 63.0625 76.488281 61.710938 74.828125 61.710938 C 73.167969 61.710938 71.820312 63.0625 71.820312 64.722656 L 71.820312 67.707031 L 77.839844 67.707031 Z M 77.839844 64.722656 " fill-opacity="1" fill-rule="evenodd"/><path fill="#ffda46" d="M 69.386719 70.332031 L 80.273438 70.332031 L 80.273438 79.171875 L 69.386719 79.171875 Z M 69.386719 70.332031 " fill-opacity="1" fill-rule="evenodd"/><path fill="#46a2ff" d="M 58.496094 87.289062 L 91.160156 87.289062 L 91.160156 90.425781 L 58.496094 90.425781 Z M 58.496094 87.289062 " fill-opacity="1" fill-rule="evenodd"/><path fill="#46a2ff" d="M 58.496094 98.503906 L 91.160156 98.503906 L 91.160156 101.644531 L 58.496094 101.644531 Z M 58.496094 98.503906 " fill-opacity="1" fill-rule="evenodd"/></svg>